OpenSim_Sub07_EMGBaseline_GRF.mot
version=1
nRows=47
nColumns=19
inDegrees=no
endheader
time	lFx	lFy	lFz	lCOPx	lCOPy	lCOPz	rFx	rFy	rFz	rCOPx	rCOPy	rCOPz	lMx	lMy	lMz	rMx	rMy	rMz
0	-1.13747232	414.51430909	15.03964460	0.58862921	0	-0.59424252	-2.90198065	335.75874247	-9.10409658	0.60716134	0	-0.41743486	0	2.77969839	0	0	1.68723261	-0.00000000
0.01000000	-0.92276991	414.96749787	14.76217353	0.58852122	0	-0.59461691	-1.35874708	335.98145734	-8.75001063	0.60965932	0	-0.41742478	0	2.80832521	0	0	1.88073087	0
0.02000000	-0.85163231	415.16097346	14.64413979	0.58863998	0	-0.59480686	-0.61333122	336.28669591	-8.53632292	0.61111579	0	-0.41736984	0	2.81495563	0	0	1.95335029	0
0.03000000	-0.85732630	415.22628876	14.65852472	0.58875839	0	-0.59484938	-0.41903285	336.61932583	-8.42677747	0.61177675	0	-0.41735680	0	2.82053125	0	0	1.94738594	-0.00000000
0.04000000	-0.89055467	415.34528081	14.74609867	0.58874070	0	-0.59484199	-0.47313917	336.87817750	-8.37068621	0.61195569	0	-0.41740963	0	2.84287767	0	0	1.90754799	0
0.05000000	-0.91861854	415.53302950	14.85679049	0.58865204	0	-0.59485400	-0.58399702	337.00060561	-8.33924184	0.61190807	0	-0.41749385	0	2.86153590	0	0	1.87748823	-0.00000000
0.06000000	-0.93234424	415.66152003	14.95057486	0.58863473	0	-0.59487961	-0.67563809	337.00142323	-8.30746451	0.61179746	0	-0.41758999	0	2.85305090	0	0	1.86738449	0.00000000
0.07000000	-0.94444210	415.68492431	15.02422906	0.58867984	0	-0.59492786	-0.74788019	336.94335830	-8.26860786	0.61167981	0	-0.41763309	0	2.83256568	0	0	1.87351165	0
0.08000000	-0.96083808	415.67059723	15.08919297	0.58873055	0	-0.59499560	-0.81888724	336.89083368	-8.23253977	0.61153545	0	-0.41760015	0	2.80308097	0	0	1.89458684	0
0.09000000	-0.96168867	415.69380685	15.13875746	0.58881120	0	-0.59504826	-0.86784089	336.89654720	-8.19349715	0.61147182	0	-0.41756563	0	2.78039251	0	0	1.91906365	0
0.10000000	-0.94238903	415.80598186	15.17240147	0.58889058	0	-0.59505565	-0.88296648	337.00115514	-8.14073417	0.61154141	0	-0.41757095	0	2.77576721	0	0	1.94005835	0.00000000
0.11000000	-0.89926644	416.07286189	15.19498208	0.58892741	0	-0.59503821	-0.86427325	337.20190910	-8.08394873	0.61173274	0	-0.41755514	0	2.77947326	0	0	1.94304051	-0.00000000
0.12000000	-0.82465556	416.46362356	15.18686385	0.58891576	0	-0.59503269	-0.82349757	337.41774898	-8.02782818	0.61187222	0	-0.41748604	0	2.79862307	0	0	1.92905122	0.00000000
0.13000000	-0.73565675	416.82361398	15.15802168	0.58881539	0	-0.59501551	-0.77496024	337.55188461	-7.97830752	0.61185318	0	-0.41741017	0	2.83438097	0	0	1.90963613	0.00000000
0.14000000	-0.64903040	417.06626462	15.12711294	0.58871394	0	-0.59498891	-0.72432546	337.51892799	-7.97215646	0.61175161	0	-0.41743913	0	2.87648764	0	0	1.88894211	0
0.15000000	-0.57663495	417.15561302	15.08995151	0.58864172	0	-0.59498714	-0.66893674	337.39743455	-8.01374702	0.61156725	0	-0.41754452	0	2.91456061	0	0	1.87945795	0.00000000
0.16000000	-0.51723943	417.03545760	15.06566646	0.58859715	0	-0.59496566	-0.62111336	337.29480219	-8.05840926	0.61130406	0	-0.41762352	0	2.93052956	0	0	1.88182856	0
0.17000000	-0.45813277	416.73213266	15.06560743	0.58848253	0	-0.59490914	-0.57163056	337.30029807	-8.07221754	0.61113000	0	-0.41764766	0	2.91473498	0	0	1.87845637	0
0.18000000	-0.40140211	416.31453184	15.06736861	0.58831390	0	-0.59483414	-0.52276973	337.39351151	-8.04908909	0.61106543	0	-0.41765220	0	2.88169970	0	0	1.87076128	-0.00000000
0.19000000	-0.34786355	415.87102298	15.04710603	0.58821532	0	-0.59477114	-0.47769238	337.58532513	-8.02420425	0.61106375	0	-0.41762517	0	2.84338360	0	0	1.86054791	0.00000000
0.20000000	-0.31394563	415.47991900	15.00808542	0.58823045	0	-0.59473545	-0.42174087	337.84817871	-8.00582289	0.61113017	0	-0.41755037	0	2.81097212	0	0	1.83891588	0.00000000
0.21000000	-0.30305821	415.09288571	14.93794680	0.58829814	0	-0.59472467	-0.33574149	338.13349147	-8.01844248	0.61120657	0	-0.41747399	0	2.79626982	0	0	1.81732390	0
0.22000000	-0.31603118	414.71064824	14.86030271	0.58835083	0	-0.59473799	-0.22139955	338.41708608	-8.07688813	0.61124788	0	-0.41743204	0	2.79239225	0	0	1.80580881	0
0.23000000	-0.35512150	414.28047936	14.80768995	0.58836045	0	-0.59472797	-0.09982171	338.69529969	-8.16558207	0.61119880	0	-0.41742479	0	2.78684447	0	0	1.81272335	0.00000000
0.24000000	-0.39370402	413.82914298	14.75961747	0.58828662	0	-0.59469254	0.01115031	338.97174379	-8.26171900	0.61092792	0	-0.41744617	0	2.78990207	0	0	1.83852759	0.00000000
0.25000000	-0.40160898	413.42705917	14.70959867	0.58812745	0	-0.59463906	0.09606396	339.28469540	-8.31919984	0.61054383	0	-0.41745840	0	2.79339074	0	0	1.87124354	0
0.26000000	-0.37022761	413.14403861	14.66363744	0.58797749	0	-0.59458947	0.14213027	339.66072549	-8.31473728	0.61024855	0	-0.41745789	0	2.78914038	0	0	1.88359563	-0.00000000
0.27000000	-0.33128867	413.01481330	14.62126480	0.58788192	0	-0.59458759	0.15556347	340.05690584	-8.28026603	0.61010733	0	-0.41745580	0	2.78651906	0	0	1.87146948	0
0.28000000	-0.32468937	412.97041936	14.59620894	0.58782899	0	-0.59462228	0.17312122	340.38873793	-8.24953720	0.61003889	0	-0.41745505	0	2.79585109	0	0	1.85960525	0.00000000
0.29000000	-0.32721240	412.95233075	14.58188570	0.58789376	0	-0.59467833	0.19767482	340.53561519	-8.22781582	0.60994459	0	-0.41747975	0	2.81807685	0	0	1.85144130	0
0.30000000	-0.31566441	412.89928454	14.57254132	0.58801419	0	-0.59471840	0.22838398	340.48214869	-8.20873367	0.60990742	0	-0.41753638	0	2.83756452	0	0	1.84845974	0
0.31000000	-0.28834484	412.82772017	14.59125281	0.58808414	0	-0.59472311	0.27319395	340.33655710	-8.19426006	0.60991585	0	-0.41758957	0	2.82944478	0	0	1.85534373	0
0.32000000	-0.24761279	412.82424551	14.63122087	0.58808212	0	-0.59470399	0.31638049	340.17800759	-8.18531436	0.60993515	0	-0.41762126	0	2.80455418	0	0	1.86955015	0
0.33000000	-0.21635853	412.96850180	14.68043249	0.58799290	0	-0.59466785	0.33445096	339.96030457	-8.18023309	0.60987166	0	-0.41767521	0	2.80431137	0	0	1.88649476	0
0.34000000	-0.21739587	413.22210392	14.72056799	0.58779936	0	-0.59463112	0.29678999	339.61290685	-8.15832206	0.60973335	0	-0.41774196	0	2.82529229	0	0	1.90032018	0
0.35000000	-0.24055003	413.48090210	14.75461424	0.58754615	0	-0.59461560	0.20349479	339.14725646	-8.10646481	0.60960417	0	-0.41777839	0	2.84607851	0	0	1.90426124	0
0.36000000	-0.25193895	413.78404273	14.80702910	0.58736675	0	-0.59464830	0.09441888	338.63757432	-8.04334640	0.60958961	0	-0.41779213	0	2.86926498	0	0	1.90341579	0.00000000
0.37000000	-0.22343285	414.21987536	14.88095973	0.58729511	0	-0.59474147	0.01022978	338.09453021	-7.98254780	0.60977738	0	-0.41782897	0	2.88709263	0	0	1.89519215	0.00000000
0.38000000	-0.16658633	414.80654354	14.96158838	0.58725616	0	-0.59486817	-0.05835449	337.55581809	-7.92931152	0.61003337	0	-0.41790187	0	2.90321994	0	0	1.88093503	0.00000000
0.39000000	-0.12945771	415.43047927	15.03084359	0.58721939	0	-0.59496309	-0.12497442	337.08577168	-7.87782987	0.61019049	0	-0.41799961	0	2.92625284	0	0	1.87001805	0.00000000
0.40000000	-0.12543857	415.97965692	15.10206422	0.58719319	0	-0.59504203	-0.18860181	336.70769217	-7.81824361	0.61021644	0	-0.41811498	0	2.92907895	0	0	1.84952829	0
0.41000000	-0.10242868	416.40976892	15.18353700	0.58716507	0	-0.59512455	-0.23691818	336.44896903	-7.74446561	0.61020732	0	-0.41823376	0	2.88981167	0	0	1.81387311	0
0.42000000	-0.05282100	416.68133767	15.27773671	0.58714272	0	-0.59519736	-0.27076753	336.37529588	-7.67100357	0.61023833	0	-0.41834392	0	2.83093267	0	0	1.78692003	0
0.43000000	-0.02230839	416.79528293	15.38747459	0.58710730	0	-0.59525449	-0.29892192	336.45806185	-7.60200050	0.61020968	0	-0.41846235	0	2.78801856	0	0	1.78098681	0.00000000
0.44000000	-0.03926068	416.75539887	15.47073322	0.58703782	0	-0.59528637	-0.32024307	336.65813086	-7.53162174	0.60996675	0	-0.41857667	0	2.79865864	0	0	1.79965242	0
0.45000000	-0.06448399	416.62991253	15.48916310	0.58695672	0	-0.59532121	-0.32980461	337.01378490	-7.46340726	0.60961957	0	-0.41865270	0	2.84723543	0	0	1.83035470	0
0.46000000	-0.05854818	416.45335104	15.48857552	0.58678733	0	-0.59533678	-0.33549465	337.51831187	-7.40335324	0.60937734	0	-0.41870557	0	2.88568196	0	0	1.84897010	0.00000000
